<?xml version="1.0" encoding="UTF-8"?>
<svg id="Layer_1" xmlns="http://www.w3.org/2000/svg" xmlns:xlink="http://www.w3.org/1999/xlink" version="1.1" viewBox="0 0 1024 1024">
  <!-- Generator: Adobe Illustrator 29.1.0, SVG Export Plug-In . SVG Version: 2.1.0 Build 142)  -->
  <defs>
    <style>
      .st0 {
        fill: none;
      }

      .st1 {
        fill: url(#linear-gradient2);
      }

      .st2 {
        fill: url(#linear-gradient1);
      }

      .st3 {
        fill-opacity: .3;
      }

      .st4 {
        fill: url(#linear-gradient);
      }

      .st5 {
        fill: #ba1a1a;
        opacity: .8;
      }

      .st6 {
        display: none;
      }

      .st7 {
        clip-path: url(#clippath);
      }
    </style>
    <linearGradient id="linear-gradient" x1="-545.9" y1="792.5" x2="22.6" y2="214.1" gradientTransform="translate(983.3 1403) scale(1.8 -1.8)" gradientUnits="userSpaceOnUse">
      <stop offset="0" stop-color="#fff"/>
      <stop offset="1" stop-color="#fff"/>
    </linearGradient>
    <clipPath id="clippath">
      <path class="st0" d="M100,724v-424c0-115,70-200,200-200h424c130,0,200,85,200,200v424c0,115-70,200-200,200h-424c-130,0-200-85-200-200Z"/>
    </clipPath>
    <linearGradient id="linear-gradient1" x1="-545.9" y1="792.5" x2="22.6" y2="214.1" gradientTransform="translate(983.3 1403) scale(1.8 -1.8)" gradientUnits="userSpaceOnUse">
      <stop offset="0" stop-color="#fff"/>
      <stop offset="1" stop-color="#fff"/>
    </linearGradient>
    <linearGradient id="linear-gradient2" x1="760.6" y1="704.5" x2="263.4" y2="207.3" gradientUnits="userSpaceOnUse">
      <stop offset=".5" stop-color="#525a92"/>
      <stop offset="1" stop-color="#ba1a1a"/>
    </linearGradient>
  </defs>
  <g id="primary">
    <g id="flat" class="st6">
      <rect class="st4" x="0" y="0" width="1024" height="1024"/>
    </g>
    <g id="rounded">
      <path id="shadow-path" class="st3" d="M927.7,362.6c0-9.8,0-18.4,0-28.1,0-8.2-.1-16.5-.4-24.7-.5-18-1.5-36.1-4.7-53.8-3.2-18-8.5-34.8-16.9-51.1-8.2-16.1-18.9-30.8-31.7-43.6-12.8-12.8-27.5-23.4-43.6-31.6-16.4-8.3-33.2-13.6-51.2-16.9-17.8-3.2-35.9-4.2-53.8-4.7-8.2-.2-16.5-.3-24.7-.4-9.8,0-19.6,0-29.4,0l-113.6-.4h-85l-111.6.4c-9.8,0-19.6,0-29.4,0-8.3,0-16.5.1-24.8.4-18,.5-36.1,1.5-53.9,4.7-18.1,3.2-34.9,8.5-51.3,16.8-16.1,8.2-30.9,18.9-43.7,31.6-12.8,12.8-23.5,27.5-31.7,43.6-8.4,16.4-13.7,33.1-16.9,51.2-3.2,17.7-4.3,35.8-4.7,53.8-.2,8.2-.3,16.5-.4,24.7,0,9.8-.6,21.9-.6,31.7v196l.5,112.4c0,9.8,0,19.6,0,29.4,0,8.3.1,16.5.4,24.8.5,18,1.5,36.1,4.7,53.9,3.2,18,8.5,34.8,16.9,51.2,8.2,16.1,18.9,30.8,31.7,43.6,12.8,12.8,27.5,23.5,43.7,31.7,16.4,8.3,33.2,13.6,51.3,16.9,17.8,3.2,35.9,4.3,53.9,4.7,8.3.2,16.5.3,24.8.4,9.8,0,19.6,0,29.4,0h310.3c9.8,0,19.6,0,29.4,0,8.2,0,16.5-.1,24.7-.4,18-.5,36.1-1.5,53.8-4.7,18-3.2,34.8-8.5,51.2-16.9,16.1-8.2,30.8-18.9,43.6-31.7,12.8-12.8,23.5-27.5,31.7-43.6,8.3-16.4,13.6-33.2,16.9-51.2,3.2-17.8,4.2-35.9,4.7-53.9.2-8.2.3-16.5.4-24.8,0-9.8,0-19.6,0-29.4v-312Z"/>
      <g class="st7">
        <g id="g11380">
          <rect class="st2" x="0" y="0" width="1024" height="1024"/>
        </g>
      </g>
    </g>
  </g>
  <g>
    <path class="st0" d="M733.3,478.8c0,74.4-20.9,142-62.7,202.9-41.8,60.9-94.7,101.4-158.6,121.7-63.9-20.3-116.8-60.9-158.6-121.7-41.8-60.9-62.7-128.5-62.7-202.9v-174.3l221.3-83,221.3,83v174.3Z"/>
    <path class="st1" d="M512,143.2l-295.1,110.7v225c0,93.4,27.8,178.4,83.5,255,55.6,76.5,126.2,125.6,211.6,147.1,85.4-21.5,156-70.5,211.6-147.1,55.6-76.5,83.5-161.5,83.5-255v-225l-295.1-110.7ZM681,478.8c0,64.2-17.5,120.8-53.5,173.2-31.8,46.2-69.7,77.8-115.5,95.9-45.9-18.1-83.7-49.6-115.5-95.9-36-52.4-53.5-109-53.5-173.2v-138l169-63.4,169,63.4v138.1Z"/>
    <path class="st5" d="M518.8,702.7c10.5,0,19.5-3.8,27.2-11.5,7.7-7.7,11.5-16.8,11.5-27.2s-3.8-19.5-11.5-27.2c-7.7-7.7-16.8-11.5-27.2-11.5s-19.5,3.8-27.2,11.5-11.5,16.8-11.5,27.2,3.8,19.5,11.5,27.2c7.7,7.7,16.8,11.5,27.2,11.5Z"/>
    <path class="st5" d="M492.1,584.7h55.3v-20.3c0-6.8,1.5-13.2,4.6-19.4,3.7-8.6,8.6-15.8,14.8-21.7,6.1-5.8,12.6-11.8,19.4-18,10.5-10.5,19.5-22.1,27.2-35,7.7-12.9,11.5-27,11.5-42.4,0-27.7-10.6-50.3-31.8-67.8-21.2-17.5-46-26.3-74.2-26.3s-46.6,7.1-65.9,21.2c-19.4,14.1-32.4,32.9-39.2,56.2l49.8,20.3c3.7-12.3,10.6-22.7,20.7-31.4,10.1-8.6,21.7-12.9,34.6-12.9s25.4,4,35.5,12c10.1,8,15.2,18.1,15.2,30.4s-3.2,20.1-9.7,29c-6.5,8.9-13.7,17.1-21.7,24.4-7.4,6.8-14.8,13.7-22.1,20.7-7.4,7.1-13.2,15.2-17.5,24.4-4.3,8.6-6.5,17.7-6.5,27.2v29Z"/>
  </g>
</svg>