<?xml version="1.0" encoding="UTF-8"?>
<svg id="Layer_1" xmlns="http://www.w3.org/2000/svg" version="1.1" viewBox="0 0 20.4 20.4">
  <!-- Generator: Adobe Illustrator 29.1.0, SVG Export Plug-In . SVG Version: 2.1.0 Build 142)  -->
  <defs>
    <style>
      .st0 {
        fill: none;
      }

      .st1 {
        fill: url(#linear-gradient);
      }

      .st2 {
        fill: #ba1a1a;
        opacity: .8;
      }
    </style>
    <linearGradient id="linear-gradient" x1="16.9" y1="15.4" x2="3.5" y2="1.9" gradientUnits="userSpaceOnUse">
      <stop offset=".5" stop-color="#525a92"/>
      <stop offset="1" stop-color="#ba1a1a"/>
    </linearGradient>
  </defs>
  <path class="st0" d="M16.2,9.3c0,2-.6,3.9-1.7,5.5-1.1,1.7-2.6,2.8-4.3,3.3-1.7-.6-3.2-1.7-4.3-3.3-1.1-1.6-1.7-3.5-1.7-5.5v-4.7l6-2.2,6,2.2v4.7Z"/>
  <path class="st1" d="M10.2.2L2.2,3.2v6.1c0,2.5.8,4.8,2.3,6.9,1.5,2.1,3.4,3.4,5.7,4,2.3-.6,4.2-1.9,5.7-4,1.5-2.1,2.3-4.4,2.3-6.9V3.2L10.2.2ZM14.8,9.3c0,1.7-.5,3.3-1.5,4.7-.9,1.3-1.9,2.1-3.1,2.6-1.2-.5-2.3-1.3-3.1-2.6-1-1.4-1.5-3-1.5-4.7v-3.7l4.6-1.7,4.6,1.7v3.7Z"/>
  <path class="st2" d="M10.4,15.4c.3,0,.5-.1.7-.3.2-.2.3-.5.3-.7s-.1-.5-.3-.7c-.2-.2-.5-.3-.7-.3s-.5.1-.7.3-.3.5-.3.7.1.5.3.7.5.3.7.3Z"/>
  <path class="st2" d="M9.7,12.2h1.5v-.6c0-.2,0-.4.1-.5.1-.2.2-.4.4-.6s.3-.3.5-.5c.3-.3.5-.6.7-1s.3-.7.3-1.2c0-.8-.3-1.4-.9-1.8s-1.2-.7-2-.7-1.3.2-1.8.6-.9.9-1.1,1.5l1.4.6c.1-.3.3-.6.6-.9s.6-.4.9-.4.7.1,1,.3.4.5.4.8,0,.5-.3.8-.4.5-.6.7c-.2.2-.4.4-.6.6s-.4.4-.5.7c-.1.2-.2.5-.2.7v.8Z"/>
</svg>